<?xml version="1.0" encoding="utf-8"?>
<!-- Generator: Adobe Illustrator 25.2.3, SVG Export Plug-In . SVG Version: 6.00 Build 0)  -->
<svg version="1.1" id="Ebene_1" xmlns="http://www.w3.org/2000/svg" xmlns:xlink="http://www.w3.org/1999/xlink" x="0px" y="0px"
	 width="1010px" height="241.7px" viewBox="0 0 1010 241.7" style="enable-background:new 0 0 1010 241.7;" xml:space="preserve">
<style type="text/css">
	.st0{fill:#FFFFFF;}
	.st1{fill:#00E676;}
	.st2{fill:#00C853;}
</style>
<g>
	<g>
		<path class="st0" d="M434.9,93.8c-2.9,15.9-9.5,25.2-22.3,32l-0.2,0.9c13.5,5.3,19,19.9,15.7,39.5c-5.1,27.8-28.2,41.7-57.1,41.7
			h-62.7c-5.5,0-7.1-2-6.2-7.5L327,58.7c1.1-5.5,3.3-7.5,8.8-7.5h61.3C425.4,51.2,439.5,68.9,434.9,93.8z M382,141h-41.7l-7.3,41
			h41.7c13.9,0,22.5-6.8,24.7-20.3C401.8,148.3,395.9,141,382,141z M389.5,77.1h-37.9l-6.8,38.8h37.7c13.2,0,21.4-6.2,23.8-19.4
			C408.4,83.5,402.5,77.1,389.5,77.1z"/>
		<path class="st0" d="M529.6,90.3c5.1,0,6.6,1.5,5.7,6.8l-1.8,9.7c-0.9,5.1-2.9,6.8-7.9,6.8h-7.9c-8.6,0-15.4,0.9-21.6,2.6
			c-2,0.4-2.2,1.5-2.6,2.6L479,201c-0.9,5.1-3.1,6.8-8.2,6.8H459c-5.1,0-6.4-1.8-5.5-6.8l16.1-91.6c1.3-7.1,3.3-9.7,10.6-12.6
			c8.8-3.1,22.5-6.2,42.1-6.6H529.6z"/>
		<path class="st0" d="M606.8,90.3c33.1,0,47.9,18.1,43.2,45.4l-5.7,32.7c-4.9,27.4-24.9,42.8-58,42.8c-32.7,0-48.1-17.4-43.5-44.8
			l5.7-32.7C553.4,106.4,574.1,90.3,606.8,90.3z M603,113.5c-16.1,0-26.5,7.5-28.9,21l-5.7,32.7c-2.4,13.2,5.3,21,21.4,21
			c16.3,0,26.7-7.7,29.1-21l5.7-32.7C627.1,121,619.3,113.5,603,113.5z"/>
		<path class="st0" d="M763,207.9h-10.8c-7.7,0-9-0.9-10.8-6.2l-8.6-30.4c-2-7.7-6.2-10.8-15.4-10.8h-13.2l-7.3,40.4
			c-0.9,5.3-2.9,7.1-8.4,7.1h-11.3c-5.5,0-6.8-1.8-6-7.1l26.3-149.1c1.1-5.3,3.1-7.1,8.6-7.1h11.3c5.5,0,6.8,1.8,5.7,7.1l-15,86h9.7
			h1.5l36.8-39.1c4.6-5.1,6.6-5.1,14.1-5.1h11c6.6,0,7.7,2.9,2.6,7.9L743.6,143c6.2,3.3,9.7,9,12.6,18.1l12.6,38.6
			C770.7,205.7,769.4,207.9,763,207.9z"/>
		<path class="st0" d="M888.9,207.9h-10.8c-7.7,0-9-0.9-10.8-6.2l-8.6-30.4c-2-7.7-6.2-10.8-15.4-10.8H830l-7.3,40.4
			c-0.9,5.3-2.9,7.1-8.4,7.1h-11.3c-5.5,0-6.8-1.8-6-7.1l26.3-149.1c1.1-5.3,3.1-7.1,8.6-7.1h11.3c5.5,0,6.8,1.8,5.7,7.1l-15,86h9.7
			h1.5l36.8-39.1c4.6-5.1,6.6-5.1,14.1-5.1h11c6.6,0,7.7,2.9,2.6,7.9L869.5,143c6.2,3.3,9.7,9,12.6,18.1l12.6,38.6
			C896.7,205.7,895.3,207.9,888.9,207.9z"/>
		<path class="st0" d="M999,90.3c5.1,0,6.6,1.5,5.7,6.8l-1.8,9.7c-0.9,5.1-2.9,6.8-7.9,6.8h-7.9c-8.6,0-15.4,0.9-21.6,2.6
			c-2,0.4-2.2,1.5-2.6,2.6L948.5,201c-0.9,5.1-3.1,6.8-8.2,6.8h-11.9c-5.1,0-6.4-1.8-5.5-6.8l16.1-91.6c1.3-7.1,3.3-9.7,10.6-12.6
			c8.8-3.1,22.5-6.2,42.1-6.6H999z"/>
	</g>
	<g>
		<path class="st1" d="M248.2,102.8l-18.8,8.1c7-62.2-41.5-100.1-41.5-100.1l-5,15.4C126.6-16.3,63.1,17.4,61,22
			c0,0,94.3-4.1,116.6,65.6c12.4,38.9-6.8,68.8-25.3,80.4c-44.1,27.8-76.1,6.6-81.3,1.7c-1.2-1.2-17-15.1-17.5-35.4
			c-1-47.6,50.6-57.1,50.6-57.1s-46.7-18.5-82,25.6C-21,156.6,31,217.7,31,217.7l5.3-15.4c53.5,62.8,150.3,20.6,150.3,20.6l-14.1-10
			C244.9,175.9,248.2,104.2,248.2,102.8z"/>
		<g>
			<path class="st2" d="M11.5,119.9c2.6-5.7,6.1-11.4,10.6-17.1c35.3-44.1,82-25.6,82-25.6s-67.8-9.9-98.9,68.3
				C5.7,137.1,7.6,128.5,11.5,119.9"/>
			<path class="st2" d="M36.3,202.2c53.5,62.8,150.3,20.6,150.3,20.6S79.3,250,42,185.6L36.3,202.2z"/>
			<path class="st2" d="M229.4,110.9c7-62.2-41.5-100.1-41.5-100.1s35.5,41.7,26.3,106.6L229.4,110.9z"/>
			<path class="st2" d="M182.9,26.2C126.6-16.3,63.1,17.4,61,22c0,0,64.2-32.5,116.6,20.5L182.9,26.2z"/>
			<path class="st2" d="M172.5,212.9c72.3-37,75.7-108.7,75.7-110.1c0,0-26.4,78.1-92.8,98L172.5,212.9z"/>
		</g>
	</g>
</g>
</svg>
